<?xml version="1.0" encoding="UTF-8"?>
<svg width="48px" height="24px" background="white" viewBox="0 0 48 24" version="1.1" xmlns="http://www.w3.org/2000/svg" xmlns:xlink="http://www.w3.org/1999/xlink">
    <!-- Generator: Sketch 51.2 (57519) - http://www.bohemiancoding.com/sketch -->
    <title>bugorog</title>
    <desc>Created with Sketch.</desc>
    <defs></defs>
    <g id="bugorog" stroke="none" stroke-width="1" fill="white" fill-rule="evenodd">
        <path d="M-0.5,18.4971164 L-0.5,17.4971164 L3.46761355,17.4971164 C6.64364022,17.4971164 11.1330914,15.6733513 13.4178568,13.4559484 L19.6980591,7.36090743 C22.2750744,4.8598712 26.4142733,4.88208294 28.956277,7.41406239 L34.9778578,13.4118975 C37.227859,15.653026 41.6955331,17.4971164 44.8691255,17.4971164 L48.515578,17.4971164 L48.515578,18.4971164 L44.8691255,18.4971164 C41.4310913,18.4971164 36.7096361,16.5482745 34.2721493,14.1203999 L28.2505686,8.12256476 C26.0955376,5.976032 22.5802977,5.95716855 20.3945081,8.0785138 L14.1143057,14.1735548 C11.6431039,16.5718973 6.90390967,18.4971164 3.46761355,18.4971164 L-0.5,18.4971164 Z" id="Line-Copy-4" fill="#CFD8DC" fill-rule="nonzero"></path>
    </g>
</svg>